HIERARCHY
ROOT SpineBase
{
  OFFSET 0.000000 0.000000 0.000000
  CHANNELS 6 Xposition Yposition Zposition Zrotation Xrotation Yrotation
  JOINT SpineMid
  {
    OFFSET 0.000000 31.170647 0.000000
    CHANNELS 3 Zrotation Xrotation Yrotation
    JOINT SpineShoulder
    {
      OFFSET 0.205093 23.090105 -0.749778
      CHANNELS 3 Zrotation Xrotation Yrotation
      JOINT Neck
      {
        OFFSET 0.138630 7.627547 -0.590709
        CHANNELS 3 Zrotation Xrotation Yrotation
        JOINT Head
        {
          OFFSET -7.987460 12.241919 -3.650790
          CHANNELS 3 Zrotation Xrotation Yrotation
          End Site
          {
            OFFSET 0 0 0
          }
        }
      }
      JOINT ShoulderLeft
      {
        OFFSET -17.183708 -7.695195 7.318381
        CHANNELS 3 Zrotation Xrotation Yrotation
        JOINT ElbowLeft
        {
          OFFSET 0.551736 -14.524044 -22.549246
          CHANNELS 3 Zrotation Xrotation Yrotation
          JOINT WristLeft
          {
            OFFSET -16.077478 6.826309 -16.598139
            CHANNELS 3 Zrotation Xrotation Yrotation
            JOINT HandLeft
            {
              OFFSET -4.379218 0.577149 -2.127714
              CHANNELS 3 Zrotation Xrotation Yrotation
              JOINT HandTipLeft
              {
                OFFSET -2.960297 0.631619 -11.444881
                CHANNELS 3 Zrotation Xrotation Yrotation
                End Site
                {
                  OFFSET 0 0 0
                }
              }
              JOINT ThumbLeft
              {
                OFFSET 7.660447 -1.925997 -8.433276
                CHANNELS 3 Zrotation Xrotation Yrotation
                End Site
                {
                  OFFSET 0 0 0
                }
              }
            }
          }
        }
      }
      JOINT ShoulderRight
      {
        OFFSET 14.590992 -1.706952 -8.536913
        CHANNELS 3 Zrotation Xrotation Yrotation
        JOINT ElbowRight
        {
          OFFSET 9.472213 -23.081590 -4.744043
          CHANNELS 3 Zrotation Xrotation Yrotation
          JOINT WristRight
          {
            OFFSET -22.954891 3.755241 -11.529056
            CHANNELS 3 Zrotation Xrotation Yrotation
            JOINT HandRight
            {
              OFFSET -4.996951 1.238536 -2.071220
              CHANNELS 3 Zrotation Xrotation Yrotation
              JOINT HandTipRight
              {
                OFFSET -5.528885 0.556409 -1.745278
                CHANNELS 3 Zrotation Xrotation Yrotation
                End Site
                {
                  OFFSET 0 0 0
                }
              }
              JOINT ThumbRight
              {
                OFFSET -3.163184 2.263583 -0.594590
                CHANNELS 3 Zrotation Xrotation Yrotation
                End Site
                {
                  OFFSET 0 0 0
                }
              }
            }
          }
        }
      }
    }
  }
  JOINT HipLeft
  {
    OFFSET -5.527507 -0.324246 -0.125604
    CHANNELS 3 Zrotation Xrotation Yrotation
    JOINT KneeLeft
    {
      OFFSET 0.706160 -34.092985 3.532503
      CHANNELS 3 Zrotation Xrotation Yrotation
      JOINT AnkleLeft
      {
        OFFSET 5.616715 -36.370472 8.468369
        CHANNELS 3 Zrotation Xrotation Yrotation
        JOINT FootLeft
        {
          OFFSET -3.738076 -3.984925 -12.311591
          CHANNELS 3 Zrotation Xrotation Yrotation
          End Site
          {
            OFFSET 0 0 0
          }
        }
      }
    }
  }
  JOINT HipRight
  {
    OFFSET 7.142757 2.261427 -7.014107
    CHANNELS 3 Zrotation Xrotation Yrotation
    JOINT KneeRight
    {
      OFFSET 7.440360 -34.681998 1.222963
      CHANNELS 3 Zrotation Xrotation Yrotation
      JOINT AnkleRight
      {
        OFFSET 3.461115 -36.405090 7.212513
        CHANNELS 3 Zrotation Xrotation Yrotation
        JOINT FootRight
        {
          OFFSET -2.791426 -7.358829 -4.814553
          CHANNELS 3 Zrotation Xrotation Yrotation
          End Site
          {
            OFFSET 0 0 0
          }
        }
      }
    }
  }
}
MOTION
Frames: 5
Frame Time: 0.033333
-72.519394 79.519561 319.645821 -0.000000 0.000000 28.531809 -0.000000 0.000000 -28.531809 -0.000000 0.000000 0.000000 -0.000000 0.000000 0.000000 0.000000 0.000000 0.000000 -0.000000 0.000000 0.000000 -0.000000 0.000000 0.000000 -0.000000 0.000000 0.000000 -0.000000 0.000000 0.000000 0.000000 0.000000 0.000000 0.000000 0.000000 0.000000 -0.000000 0.000000 0.000000 -0.000000 0.000000 0.000000 -0.000000 0.000000 0.000000 -0.000000 0.000000 0.000000 0.000000 0.000000 0.000000 0.000000 0.000000 0.000000 -0.000000 0.000000 -28.531809 -0.000000 0.000000 0.000000 -0.000000 0.000000 0.000000 0.000000 0.000000 0.000000 -0.000000 0.000000 -28.531809 -0.000000 0.000000 0.000000 -0.000000 0.000000 0.000000 0.000000 0.000000 0.000000
-72.499803 79.514013 319.695987 0.031304 -0.025798 28.528902 -0.015182 0.037617 -28.528890 -0.000000 0.000000 0.000000 -0.000000 0.000000 0.000000 0.000000 0.000000 0.000000 -0.780932 -1.976130 1.155097 0.368844 0.801493 -4.901526 -1.739469 1.926865 2.689546 2.142775 -1.298575 0.406220 0.000000 0.000000 0.000000 0.000000 0.000000 0.000000 -1.168481 0.353786 0.390349 1.166067 -0.361664 -0.383061 -0.000000 0.000000 0.000000 -0.825032 0.088713 -1.841851 0.000000 0.000000 0.000000 0.000000 0.000000 0.000000 -0.015182 0.037617 -28.528890 -0.000000 0.000000 0.000000 0.475307 -1.346122 -0.208489 0.000000 0.000000 0.000000 -0.015182 0.037617 -28.528890 -0.000000 0.000000 0.000000 -0.827362 6.152137 -1.686131 0.000000 0.000000 0.000000
-72.480886 79.508325 319.740837 0.059549 -0.046991 28.520179 -0.029886 0.069721 -28.520136 -0.000000 0.000000 0.000000 -0.000000 0.000000 0.000000 0.000000 0.000000 0.000000 -1.428083 -3.757829 2.137255 0.608455 1.758170 -8.835425 -3.344171 3.266832 4.643442 4.062682 -2.386263 0.914603 0.000000 0.000000 0.000000 0.000000 0.000000 0.000000 -2.097129 0.624056 0.703088 2.089448 -0.649321 -0.679825 -0.874563 0.549330 0.788535 -0.626596 -0.363733 -4.181589 0.000000 0.000000 0.000000 0.000000 0.000000 0.000000 -0.029886 0.069721 -28.520136 -0.000000 0.000000 0.000000 0.813263 -2.311714 -0.351701 0.000000 0.000000 0.000000 -0.029886 0.069721 -28.520136 -0.000000 0.000000 0.000000 -1.621682 11.838212 -3.053162 0.000000 0.000000 0.000000
-72.462644 79.502495 319.780371 0.084730 -0.063576 28.505621 -0.044117 0.096306 -28.505537 -0.000000 0.000000 0.000000 -0.000000 0.000000 0.000000 0.000000 0.000000 0.000000 -1.928356 -5.267936 2.914617 0.734719 2.768758 -11.817676 -4.678163 4.123334 5.902186 5.704539 -3.252055 1.486664 0.000000 0.000000 0.000000 0.000000 0.000000 0.000000 -2.777140 0.812482 0.931926 2.763868 -0.856576 -0.891567 -1.025998 0.676480 1.068683 -0.980867 -0.407454 -5.683157 0.000000 0.000000 0.000000 0.000000 0.000000 0.000000 -0.044117 0.096306 -28.505537 -0.000000 0.000000 0.000000 1.002241 -2.853973 -0.430504 0.000000 0.000000 0.000000 -0.044117 0.096306 -28.505537 -0.000000 0.000000 0.000000 -2.424768 17.023337 -4.117603 0.000000 0.000000 0.000000
-72.445075 79.496525 319.814588 0.106848 -0.075550 28.485218 -0.057881 0.117363 -28.485088 -0.000000 0.000000 0.000000 -0.000000 0.000000 0.000000 0.000000 0.000000 0.000000 -2.274824 -6.442243 3.463478 0.744170 3.746932 -13.868478 -5.652068 4.584668 6.508173 7.027293 -3.895494 2.087756 0.000000 0.000000 0.000000 0.000000 0.000000 0.000000 -3.201678 0.920335 1.072135 3.184362 -0.978622 -1.019212 -0.983793 0.706576 1.268549 -1.349958 -0.378247 -6.751761 0.000000 0.000000 0.000000 0.000000 0.000000 0.000000 -0.057881 0.117363 -28.485088 -0.000000 0.000000 0.000000 1.035617 -2.948584 -0.445687 0.000000 0.000000 0.000000 -0.057881 0.117363 -28.485088 -0.000000 0.000000 0.000000 -3.271385 21.710426 -4.896291 0.000000 0.000000 0.000000
